<?xml version="1.0" standalone="no"?>
<!DOCTYPE svg PUBLIC "-//W3C//DTD SVG 20010904//EN"
 "http://www.w3.org/TR/2001/REC-SVG-20010904/DTD/svg10.dtd">
<svg version="1.0" xmlns="http://www.w3.org/2000/svg"
 width="692.000000pt" height="692.000000pt" viewBox="0 0 692.000000 692.000000"
 preserveAspectRatio="xMidYMid meet">
<metadata>
Created by potrace 1.11, written by Peter Selinger 2001-2013
</metadata>
<g transform="translate(0.000000,692.000000) scale(0.100000,-0.100000)"
fill="#000000" stroke="none">
<path d="M0 3460 l0 -3460 3460 0 3460 0 0 3460 0 3460 -3460 0 -3460 0 0
-3460z m3144 1030 c173 -44 331 -170 413 -329 l30 -58 29 46 c15 25 67 84 114
131 98 98 214 166 347 202 109 30 361 32 443 4 100 -34 173 -79 250 -156 61
-61 85 -93 122 -170 26 -52 57 -131 69 -175 22 -79 23 -92 26 -757 4 -668 4
-678 -17 -717 -52 -102 -192 -132 -276 -59 -70 62 -66 26 -71 713 -2 344 -8
648 -14 683 -16 105 -46 171 -104 228 -69 69 -145 94 -284 94 -173 0 -280 -43
-401 -160 -42 -41 -100 -108 -128 -149 l-52 -74 0 -618 c0 -413 -4 -627 -11
-646 -33 -89 -151 -137 -242 -99 -43 18 -95 78 -101 118 -3 18 -7 312 -9 653
-4 553 -6 628 -22 690 -51 201 -143 274 -355 283 -167 6 -282 -29 -387 -119
-57 -49 -144 -147 -182 -204 l-26 -40 -5 -630 c-6 -700 -1 -659 -74 -723 -85
-75 -226 -45 -278 59 -17 32 -18 97 -18 937 0 868 1 904 19 940 58 113 195
139 284 54 47 -44 59 -79 66 -185 l6 -99 50 62 c64 80 191 182 281 225 130 64
358 84 508 45z"/>
</g>
</svg>
