<svg xmlns="http://www.w3.org/2000/svg" xmlns:xlink="http://www.w3.org/1999/xlink" viewBox="0 0 313.14 92.89"><defs><style>.cls-1{fill:#16233A;}.cls-2{fill:#f68b1f;}.cls-3{fill:#16233A;}.cls-4{fill:url(#linear-gradient);}.cls-5{fill:#fff;}</style><linearGradient id="linear-gradient" x1="280.65" y1="-1.81" x2="287.14" y2="91.06" gradientUnits="userSpaceOnUse"><stop offset="0" stop-color="#f6cf20"/><stop offset="1" stop-color="#f57e20"/></linearGradient></defs><title>Colour w Gradient</title><g id="Layer_1" data-name="Layer 1"><path class="cls-1" d="M86.71,87.7a8.19,8.19,0,0,1-5,1.85A7.16,7.16,0,0,1,82,75.24,7.1,7.1,0,0,1,86.47,77l-.76,1a6.61,6.61,0,0,0-3.66-1.51,5.75,5.75,0,0,0-5.82,5.82,5.88,5.88,0,0,0,5.64,6A5.79,5.79,0,0,0,85.47,87V83.05H81.09l.4-1.23h5.22Z"/><path class="cls-1" d="M89.86,86a4.07,4.07,0,0,0,3.54,2.33,6,6,0,0,0,3.79-1.65v1.4a5.76,5.76,0,0,1-3.71,1.41,5.1,5.1,0,0,1-5.18-5.36A5,5,0,0,1,93.52,79a4.59,4.59,0,0,1,4,2.33Zm5.8-5a2.9,2.9,0,0,0-2.14-.87,3.92,3.92,0,0,0-4.06,4,3.8,3.8,0,0,0,.08.82Z"/><path class="cls-1" d="M98.85,76.77l1.16-.63v3.09h2.7v1.15H100v6.18c0,1.22.51,1.68,1.79,1.68a7.47,7.47,0,0,0,.94,0v1.07a5.81,5.81,0,0,1-1,.12,2.59,2.59,0,0,1-2.85-2.85V80.38H97.51l.28-1.15h1.06Z"/><path class="cls-2" d="M113,76.77l1.16-.63v3.09h2.71v1.15h-2.71v6.18c0,1.22.51,1.68,1.79,1.68a7.39,7.39,0,0,0,.94,0v1.07a5.7,5.7,0,0,1-1,.12A2.6,2.6,0,0,1,113,86.54V80.38h-1.34l.28-1.15H113Z"/><path class="cls-1" d="M129.54,81.62,126,89.48h0l-4.41-10.17,1.13-.24,3.3,7.58,3.58-7.58,3.7,7.58,3.37-7.58,1.11.24L133.3,89.48h0Z"/><path class="cls-1" d="M148.15,84.27a5.09,5.09,0,1,1-5.09-5.2A5.2,5.2,0,0,1,148.15,84.27Zm-9,0a3.94,3.94,0,1,0,3.94-4A4,4,0,0,0,139.12,84.27Z"/><path class="cls-1" d="M150.36,81.29h0c.71-1.71,1.83-2.22,3.68-2.22l-.5,1.17a3.17,3.17,0,0,0-.45,0c-1.25,0-2.78,1.54-2.78,4v5l-1.14.24V79.31l1.14-.24Z"/><path class="cls-1" d="M161.11,79l.91.55-4,4.68,4.49,4.55-.73.67-5.13-5v4.83l-1.14.24V75.15l1.14-.24v9.23Z"/><path class="cls-1" d="M166.83,89.4V79.31l1.14-.24v1.64h0a3.51,3.51,0,0,1,2.87-1.64c1.92,0,3.7.75,3.7,3.5v6.67l-1.14.16V82.32c0-1.45-.93-2.22-2.52-2.22A2.88,2.88,0,0,0,168,82.81v6.43Z"/><path class="cls-1" d="M176.17,89.82a4.71,4.71,0,0,0,3.62,1.92c1.61,0,3.31-1,3.31-2.5a3.09,3.09,0,0,0-3.21-2.87,6.87,6.87,0,0,0-2.59.58l.41-1.31a3.32,3.32,0,0,1-1.91-2.81c0-2.37,1.89-3.76,4.13-3.76.4,0,.81,0,1.21,0a16,16,0,0,0,3.26-.38l-.33,1.17a2.6,2.6,0,0,1-.87.14,2.48,2.48,0,0,1-.54-.06l0,0a3.51,3.51,0,0,1,1.51,2.73,3.34,3.34,0,0,1-2.16,3,3.52,3.52,0,0,1,2.28,3.28c0,2.4-2.24,3.81-4.56,3.81a5.61,5.61,0,0,1-4.39-2.42Zm.77-7a2.73,2.73,0,0,0,3,2.53c1.47,0,3-.91,3-2.53a3,3,0,0,0-6,0Z"/><path class="cls-1" d="M191.11,79.31v-1c0-2.91,1.79-3.37,3.83-3.37l.29,1.15c-2.69,0-3,.5-3,2.45v.8h2.83v1.15h-2.83v8.78l-1.15.24v-9h-1.34l.28-1.15Z"/><path class="cls-1" d="M205,84.27a5.09,5.09,0,1,1-5.09-5.2A5.2,5.2,0,0,1,205,84.27Zm-9,0a3.94,3.94,0,1,0,3.93-4A4,4,0,0,0,196,84.27Z"/><path class="cls-1" d="M207.23,81.29h0c.71-1.71,1.84-2.22,3.68-2.22l-.49,1.17a3.24,3.24,0,0,0-.46,0c-1.25,0-2.77,1.54-2.77,4v5l-1.15.24V79.31l1.15-.24Z"/><path class="cls-1" d="M214.22,79.31l1.13-.24,4,7.24,3.49-7.24,1.14.24-6.63,13.58-1.1-.24,2.45-5.13Z"/><path class="cls-1" d="M233.67,84.27a5.09,5.09,0,1,1-5.08-5.2A5.19,5.19,0,0,1,233.67,84.27Zm-9,0a3.94,3.94,0,1,0,3.94-4A4,4,0,0,0,224.65,84.27Z"/><path class="cls-1" d="M235.91,79.07v6.59c0,1.78.72,2.79,2.42,2.79,1.86,0,3-.67,3-4.67V79.31l1.14-.24V89.24l-1.14.16V87.76h0a3.4,3.4,0,0,1-3.11,1.72c-2.52,0-3.46-1.42-3.46-3.68V79.31Z"/><rect class="cls-3" x="0.9" y="29.54" width="6.06" height="35.93"/><path class="cls-3" d="M7.86,19.7a3.93,3.93,0,1,0-3.93,3.93A3.93,3.93,0,0,0,7.86,19.7Z"/><path class="cls-2" d="M109.19,89.47V79.23l1.16-.24V89.23Z"/><path class="cls-2" d="M110.64,77.05a.87.87,0,1,0-.87.86A.87.87,0,0,0,110.64,77.05Z"/><path class="cls-1" d="M163.88,89.47V79.23L165,79V89.23Z"/><path class="cls-1" d="M165.32,77.05a.87.87,0,1,0-1.73,0,.87.87,0,0,0,1.73,0Z"/><path class="cls-3" d="M29.54,60.64a4.74,4.74,0,0,1-3.31-1.12A4.16,4.16,0,0,1,25,56.22V34.67h8l1.28-5.13H25V19.09L19,22.22v7.32H11.73v5.13H19V56.06a9.48,9.48,0,0,0,2.88,7.34,10.42,10.42,0,0,0,7.3,2.6h2.41V60.63Z"/><path class="cls-3" d="M68.35,28.76A11.86,11.86,0,0,1,63,29.92a16.16,16.16,0,0,1-4.27-.46,23.63,23.63,0,0,0-2.53-.64,18.35,18.35,0,0,0-2.43-.12,15.15,15.15,0,0,0-10.21,3.38,11.07,11.07,0,0,0-4,8.74,10.35,10.35,0,0,0,2.07,6.3,13,13,0,0,0,4.61,4L45,56.24l1.1-.42a16.7,16.7,0,0,1,6.09-1c10.35,0,14.3,6.79,10.14,11.44-2,2.21-4.83,3.85-9.61,3.85-4.13,0-8-2.67-11-6.56l-.33-.44L37.28,66l.29.45c.22.36,5.67,8.75,15.1,8.75C63.21,75.22,69,68.47,69,62.39c0-5.22-3.73-8.71-8.19-10.38A25.06,25.06,0,0,0,64,49.53a11.26,11.26,0,0,0,3.91-8.67,9.56,9.56,0,0,0-2-6,15.65,15.65,0,0,0,1.69-.28,7.35,7.35,0,0,0,2.46-.91l.34-.23-1.35-5ZM61.91,40.82a6.21,6.21,0,0,1-2.38,4.94,8.45,8.45,0,0,1-5.68,2.06,8.71,8.71,0,0,1-6-2,6.32,6.32,0,0,1-2.26-5A6.17,6.17,0,0,1,48,35.92a8.78,8.78,0,0,1,5.88-2,8.32,8.32,0,0,1,5.76,2A6.26,6.26,0,0,1,61.91,40.82Z"/><path class="cls-3" d="M92.33,29.08a14.89,14.89,0,0,0-8,2,11.09,11.09,0,0,0-3.5,3.41l-.23-5H74.86V65.47h6.06V47.85c0-4.33,1.12-7.7,3.35-10a11.1,11.1,0,0,1,8.29-3.47H94l-1.26-5.29Z"/><path class="cls-3" d="M112.67,28.77a18.53,18.53,0,0,0-13.49,5.35,18.14,18.14,0,0,0-5.43,13.42A18,18,0,0,0,99.18,61a18.7,18.7,0,0,0,13.49,5.26A18.5,18.5,0,0,0,126.16,61a18.12,18.12,0,0,0,5.36-13.42A18.23,18.23,0,0,0,126.16,34,18.5,18.5,0,0,0,112.67,28.77Zm0,32.1a12.41,12.41,0,0,1-9.23-3.73,13.26,13.26,0,0,1-3.64-9.6,13.3,13.3,0,0,1,3.68-9.64,12.93,12.93,0,0,1,18.27,0,13.27,13.27,0,0,1,3.71,9.6,13.11,13.11,0,0,1-3.71,9.6A12.39,12.39,0,0,1,112.67,60.87Z"/><path class="cls-3" d="M154.34,28.77a18.54,18.54,0,0,0-13.5,5.35,18.14,18.14,0,0,0-5.43,13.42A18,18,0,0,0,140.85,61a19.91,19.91,0,0,0,27,0,18.11,18.11,0,0,0,5.35-13.42A18.22,18.22,0,0,0,167.83,34,18.5,18.5,0,0,0,154.34,28.77Zm0,32.1a12.4,12.4,0,0,1-9.23-3.73,13.22,13.22,0,0,1-3.64-9.6,13.3,13.3,0,0,1,3.68-9.64,12.92,12.92,0,0,1,18.26,0,13.27,13.27,0,0,1,3.71,9.6,13.07,13.07,0,0,1-3.71,9.6A12.37,12.37,0,0,1,154.34,60.87Z"/><path class="cls-3" d="M199.79,29.55l-7.43,18.17c-.42,1-.87,2.06-1.37,3.26-.39,1-.94,2.34-1.64,4.11-.36-1-.81-2.25-1.36-3.68-1.11-2.92-1.38-3.53-1.46-3.7l-7.6-18.17h-6.14l15,36.26.15.35h2.53L205.6,29.54Z"/><path class="cls-3" d="M238.5,48.14h4.14c0-.2,0-.4,0-.6A18.23,18.23,0,0,0,237.3,34a19.79,19.79,0,0,0-27,.08,18.11,18.11,0,0,0-5.44,13.42A18,18,0,0,0,210.32,61a18.29,18.29,0,0,0,10.9,5.11,22.26,22.26,0,0,0,7.86-.41c5-1,10.87-6.23,12.13-10.81l-6,0c-1.42,3.1-3.89,4.86-7.35,5.71a19.46,19.46,0,0,1-4,.34h0a12.41,12.41,0,0,1-9.23-3.73,13,13,0,0,1-3.61-9H238.5Zm-14.69-14a12.24,12.24,0,0,1,9.07,3.8,12.66,12.66,0,0,1,3,4.94H211.64a12.5,12.5,0,0,1,3-5A12.34,12.34,0,0,1,223.81,34.14Z"/></g><g id="Layer_3" data-name="Layer 3"><polygon class="cls-4" points="313.14 0 283.89 0 283.89 0.01 254.65 0.01 254.65 89.24 283.89 74.63 313.14 89.24 313.14 0"/><path class="cls-5" d="M293.35,49a14.79,14.79,0,0,1-4.29-.63,15.87,15.87,0,0,1-3.74-1.71,13.27,13.27,0,0,1-3.12-2.71A17.08,17.08,0,0,1,280.26,41H262.51V36.24H269V14.93c-.47.31-1,.6-1.48.87A22.36,22.36,0,0,1,264.68,17a33.86,33.86,0,0,1-3.95.83l-.51.07V13l.4,0A12.33,12.33,0,0,0,264,12a14.68,14.68,0,0,0,2.57-1.52,16,16,0,0,0,1.95-1.58c.38-.37.58-.57.67-.67l.34-.69h4.37v28.7h9.65l.26,1.21a7.47,7.47,0,0,0,3.94,5l.22.14a9.9,9.9,0,0,0,5.38,1.55,10.23,10.23,0,0,0,3.68-.67,8.81,8.81,0,0,0,3-1.86,8.93,8.93,0,0,0,2-2.88,9.28,9.28,0,0,0,.72-3.7,8.6,8.6,0,0,0-.7-3.51,8.21,8.21,0,0,0-1.9-2.74A9.17,9.17,0,0,0,297.2,27a9.39,9.39,0,0,0-3.53-.66,10.55,10.55,0,0,0-4.77,1.12,9.42,9.42,0,0,0-3.65,3.16l-.46.67h-4.42l.22-1.73c0-.33.14-.85.31-1.68l.56-2.63q.32-1.5.66-3.3t.72-3.69q.86-4.26,1.92-9.48L285,7.55h21.67l-.89,4.84H289l-2.19,10.93c.4-.22.82-.42,1.25-.61a14.59,14.59,0,0,1,5.75-1.16,14.23,14.23,0,0,1,5.33,1,13.37,13.37,0,0,1,4.38,2.79,13.12,13.12,0,0,1,3,4.31,13.57,13.57,0,0,1,1.09,5.43,14,14,0,0,1-1.15,5.68,13.25,13.25,0,0,1-3.13,4.42A13.9,13.9,0,0,1,298.75,48,15,15,0,0,1,293.35,49Z"/><path class="cls-5" d="M306.15,8l-.73,4H288.61l-2.46,12.26a13.47,13.47,0,0,1,2.06-1.09A14,14,0,0,1,293.78,22,13.85,13.85,0,0,1,299,23a13,13,0,0,1,4.24,2.7,12.74,12.74,0,0,1,2.89,4.16,13.28,13.28,0,0,1,1.05,5.26,13.58,13.58,0,0,1-1.11,5.5,12.76,12.76,0,0,1-3,4.28,13.66,13.66,0,0,1-4.4,2.72,14.58,14.58,0,0,1-5.24,1,14.23,14.23,0,0,1-4.16-.6,15.23,15.23,0,0,1-3.64-1.67,13.2,13.2,0,0,1-3-2.61,17.91,17.91,0,0,1-2-3H263V36.68h6.44V14.1a17.79,17.79,0,0,1-2.13,1.31,19,19,0,0,1-2.73,1.21,34,34,0,0,1-3.87.81V13.34a12.57,12.57,0,0,0,3.52-.93,15.43,15.43,0,0,0,2.64-1.56,16,16,0,0,0,2-1.62c.47-.45.66-.65.74-.73l.25-.51h3.65v28.7h9.73l.19.87a7.87,7.87,0,0,0,4.14,5.3l.21.13a10.3,10.3,0,0,0,5.62,1.62,10.68,10.68,0,0,0,3.84-.7,9,9,0,0,0,5.16-5,9.66,9.66,0,0,0,.76-3.88,9.06,9.06,0,0,0-.73-3.68,8.87,8.87,0,0,0-2-2.89,9.48,9.48,0,0,0-3-1.91,9.81,9.81,0,0,0-3.69-.69,11.13,11.13,0,0,0-5,1.16,10,10,0,0,0-3.81,3.31l-.33.48h-3.69l.16-1.24c0-.31.13-.83.3-1.64s.35-1.62.56-2.63.43-2.11.66-3.31.48-2.43.72-3.68q.86-4.26,1.92-9.48l.18-.88h20.78m1.06-.88H284.65l-.14.7-.18.88q-1.06,5.24-1.92,9.49-.37,1.88-.72,3.69c-.23,1.19-.45,2.29-.66,3.29s-.4,1.88-.56,2.63-.28,1.37-.32,1.72L280,30.74l-.12,1H285l.27-.38.32-.48a9.2,9.2,0,0,1,3.48-3,10.27,10.27,0,0,1,4.58-1.07,8.92,8.92,0,0,1,3.36.63,8.64,8.64,0,0,1,2.73,1.73,7.79,7.79,0,0,1,1.81,2.6,8.21,8.21,0,0,1,.66,3.33,8.82,8.82,0,0,1-.69,3.53,8.12,8.12,0,0,1-4.67,4.5,9.78,9.78,0,0,1-3.52.64,9.45,9.45,0,0,1-5.15-1.49l-.22-.13a7,7,0,0,1-3.74-4.74l-.19-.87-.15-.69h-9.56V7.11h-5.08L269,7.6l-.19.39-.62.61a15.32,15.32,0,0,1-1.9,1.53,14.52,14.52,0,0,1-2.5,1.48,11.8,11.8,0,0,1-3.23.86l-.8.08v5.91l1-.16a33,33,0,0,0,4-.85,20.61,20.61,0,0,0,2.84-1.26c.29-.15.57-.31.84-.47V35.8h-6.44v5.67H280a17.9,17.9,0,0,0,1.86,2.74A13.91,13.91,0,0,0,285.09,47a16.74,16.74,0,0,0,3.84,1.76,15,15,0,0,0,4.42.64,15.48,15.48,0,0,0,5.56-1,14.66,14.66,0,0,0,4.68-2.9,13.91,13.91,0,0,0,3.24-4.57A14.43,14.43,0,0,0,308,35.07a14,14,0,0,0-1.13-5.61A13.55,13.55,0,0,0,303.8,25a14.23,14.23,0,0,0-4.52-2.88,14.73,14.73,0,0,0-5.5-1,14.88,14.88,0,0,0-5.92,1.2l-.47.21,1.94-9.69h16.82l.14-.72.73-4,.19-1Z"/><path class="cls-5" d="M263.11,55.81l2.52,4.93,2.57-4.93h2.14l-3.71,6.66V66h-2v-3.6L261,55.81Z"/><path class="cls-5" d="M278.45,64.3V66h-7.1V55.81h7v1.74h-5V60h4.31v1.61h-4.31V64.3Z"/><path class="cls-5" d="M279,66l4-10.23h1.61l4,10.23h-2.1l-.94-2.55h-3.58L281.12,66ZM283.86,58l-1.47,4.13h2.89Z"/><path class="cls-5" d="M289.78,66V55.81h4.52a3,3,0,0,1,1.31.29,3.46,3.46,0,0,1,1,.78,3.65,3.65,0,0,1,.67,1.1,3.18,3.18,0,0,1,.25,1.23,3.42,3.42,0,0,1-.5,1.81,2.87,2.87,0,0,1-1.34,1.17l2.4,3.85h-2.25l-2.14-3.43h-2V66Zm2-5.17h2.49a1.14,1.14,0,0,0,.51-.13,1.29,1.29,0,0,0,.41-.36,1.62,1.62,0,0,0,.28-.52,2.27,2.27,0,0,0,.1-.65,1.76,1.76,0,0,0-.12-.66,1.85,1.85,0,0,0-.31-.53,1.34,1.34,0,0,0-.45-.34,1,1,0,0,0-.51-.13h-2.4Z"/><path class="cls-5" d="M305.6,58.49a2.08,2.08,0,0,0-.37-.27,3.9,3.9,0,0,0-.65-.34,4.94,4.94,0,0,0-.82-.28,3.56,3.56,0,0,0-.91-.12,2.06,2.06,0,0,0-1.23.3,1,1,0,0,0-.4.85.88.88,0,0,0,.15.53,1.37,1.37,0,0,0,.44.37,3.49,3.49,0,0,0,.73.28l1,.28c.5.13,1,.28,1.37.43a3.9,3.9,0,0,1,1,.58,2.32,2.32,0,0,1,.66.83,2.76,2.76,0,0,1,.23,1.18,3.06,3.06,0,0,1-.31,1.41,2.6,2.6,0,0,1-.83.94,3.59,3.59,0,0,1-1.21.53,6.17,6.17,0,0,1-1.44.16,7.73,7.73,0,0,1-2.28-.34,7,7,0,0,1-2-1l.87-1.72a3.06,3.06,0,0,0,.47.34,8.35,8.35,0,0,0,.8.42,5.65,5.65,0,0,0,1,.35,4.37,4.37,0,0,0,1.15.15c1.09,0,1.64-.35,1.64-1.05a.86.86,0,0,0-.19-.58,1.51,1.51,0,0,0-.53-.4,5,5,0,0,0-.84-.32c-.32-.1-.69-.2-1.09-.3a10,10,0,0,1-1.28-.44,3.55,3.55,0,0,1-.9-.56,2,2,0,0,1-.54-.75,2.59,2.59,0,0,1-.18-1,3.18,3.18,0,0,1,.29-1.38,2.74,2.74,0,0,1,.8-1,3.62,3.62,0,0,1,1.19-.61,4.89,4.89,0,0,1,1.45-.21,5.51,5.51,0,0,1,2,.34,7,7,0,0,1,1.59.8Z"/></g></svg>